#N canvas 648 33 617 727 10;
#X obj 379 210 nbx 5 14 -1e+37 1e+37 0 1 empty empty base_frequency
0 -8 0 10 #00fc04 #000000 #000000 211 256 0;
#X obj 474 208 nbx 5 14 -1e+37 1e+37 0 1 empty empty scale 0 -8 0 10
#00fc04 #000000 #000000 85 256 0;
#X obj 474 278 / 100;
#X obj 278 77 tgl 15 1 empty empty ON_OFF 17 7 0 10 #fc0400 #000000
#000000 1 1;
#X obj 291 101 switch~;
#X text 54 129 line in from sound card;
#X obj 77 248 *~;
#X obj 92 228 / 100;
#X obj 92 209 nbx 5 14 -1e+37 1e+37 0 1 empty empty empty 0 -8 0 10
#fcfcfc #000000 #000000 810 256 0;
#X obj 433 593 *~;
#X obj 372 102 hsl 128 15 0 0.8 0 0 empty empty empty -2 -8 0 10 #fcfcfc
#000000 #000000 12700 1;
#X text 378 80 Master Output volume;
#X obj 478 593 *~;
#X obj 550 585 *~;
#X obj 515 102 hsl 128 15 0 1 0 0 empty empty empty -2 -8 0 10 #fcfcfc
#000000 #000000 12700 1;
#X obj 593 584 *~;
#X obj 62 319 fiddle~;
#X obj 58 152 adc~ 1;
#X obj 130 403 dbtorms;
#X obj 356 559 *;
#X obj 131 458 snapshot~;
#X obj 182 407 tgl 15 0 empty empty empty 17 7 0 10 #fcfcfc #000000
#000000 1 1;
#X obj 133 511 line;
#X msg 131 485 \$1 100;
#X obj 182 430 metro 10;
#X obj 182 382 loadbang;
#X obj 646 448 delread4~ \$0-delay;
#X obj 646 506 delwrite~ \$0-delay 2000;
#X floatatom 646 404 0 0 1000 0 - - -;
#X obj 646 404 pack 0 1000;
#X obj 646 426 line~;
#X msg 646 382 500;
#X obj 646 338 loadbang;
#X obj 646 477 *~ 0.5;
#N canvas 8 539 1664 480 switch 0;
#X obj 67 181 inlet~;
#X obj 404 154 inlet;
#X obj 67 358 *~;
#X obj 205 357 *~;
#X msg 330 256 0, f 1;
#X msg 308 257 1, f 1;
#X obj 62 428 outlet~;
#X obj 403 188 select 0 1 2;
#X obj 113 181 inlet~;
#X msg 378 256 0, f 1;
#X msg 352 255 1, f 1;
#X obj 479 390 s set_freq;
#X msg 466 346 220;
#X msg 537 347 2;
#X text 566 348 Frequency for tremolo;
#X text 332 346 Frequency for ringmod;
#X obj 205 180 inlet~;
#X obj 250 180 inlet~;
#X obj 113 357 *~;
#X obj 250 358 *~;
#X obj 235 428 outlet~;
#X connect 0 0 2 0;
#X connect 1 0 7 0;
#X connect 2 0 6 0;
#X connect 3 0 6 0;
#X connect 4 0 3 1;
#X connect 4 0 19 1;
#X connect 5 0 2 1;
#X connect 5 0 18 1;
#X connect 7 0 4 0;
#X connect 7 0 12 0;
#X connect 7 0 5 0;
#X connect 7 1 4 0;
#X connect 7 1 13 0;
#X connect 7 1 5 0;
#X connect 7 2 10 0;
#X connect 7 2 9 0;
#X connect 8 0 18 0;
#X connect 9 0 2 1;
#X connect 9 0 18 1;
#X connect 10 0 3 1;
#X connect 10 0 19 1;
#X connect 12 0 11 0;
#X connect 13 0 11 0;
#X connect 16 0 3 0;
#X connect 17 0 19 0;
#X connect 18 0 20 0;
#X connect 19 0 20 0;
#X restore 468 502 pd switch;
#X obj 655 100 hradio 15 0 1 3 empty empty empty 0 -8 0 10 #fcfcfc
#000000 #000000 0;
#X obj 381 175 r set_freq;
#X text 659 79 1) ringmod 2) Tremolo 3) Delay;
#X text 516 77 Scale on Oscilloscope;
#X obj 381 240 phasor~;
#X obj 381 349 *~;
#X obj 415 350 *~;
#X obj 380 313 cos~;
#X obj 415 314 cos~;
#X obj 415 278 +~ 0.25;
#X obj 461 308 sig~;
#X text 647 315 Setting 3 stuff;
#X text 381 152 Setting 1 and 2 stuff;
#X text 26 391 Only make sound when there is sound in the mic, f 16
;
#X obj 433 636 dac~ 1 2;
#X obj 550 635 dac~ 3 4;
#N canvas 0 23 450 300 osc 0;
#X obj 236 31 inlet;
#X obj 198 147 list prepend send;
#X obj 197 165 list trim;
#X obj 198 185 netsend -u -b;
#X msg 125 122 disconnect;
#X obj 199 125 oscformat /freq;
#X msg 125 101 connect 127.0.0.1 12000;
#X obj 124 66 loadbang;
#X connect 0 0 5 0;
#X connect 1 0 2 0;
#X connect 2 0 3 0;
#X connect 4 0 3 0;
#X connect 5 0 1 0;
#X connect 6 0 3 0;
#X connect 7 0 6 0;
#X restore 321 272 pd osc;
#X obj 374 23 loadbang;
#X msg 370 55 0.8;
#X obj 259 101 dsp~;
#X msg 278 55 1;
#X msg 513 55 1;
#X msg 655 55 0;
#N canvas 0 0 450 300 frequencyChanger 0;
#X obj 116 341 outlet;
#X obj 115 259 random 600;
#X obj 115 278 + 200;
#X obj 115 240 metro 60000;
#X obj 115 316 line;
#X msg 115 297 \$1 10000;
#X obj 125 130 inlet;
#X connect 1 0 2 0;
#X connect 2 0 5 0;
#X connect 3 0 1 0;
#X connect 4 0 0 0;
#X connect 5 0 4 0;
#X connect 6 0 3 0;
#X restore 254 175 pd frequencyChanger;
#X obj 254 138 loadbang;
#X obj 254 157 tgl 15 0 empty empty empty 17 7 0 10 #fcfcfc #000000
#000000 0 1;
#X text 90 189 audio input volume;
#X connect 0 0 39 0;
#X connect 0 0 51 0;
#X connect 1 0 2 0;
#X connect 2 0 45 0;
#X connect 3 0 4 0;
#X connect 3 0 54 0;
#X connect 6 0 40 1;
#X connect 6 0 41 1;
#X connect 6 0 34 2;
#X connect 6 0 27 0;
#X connect 7 0 6 1;
#X connect 8 0 7 0;
#X connect 9 0 49 0;
#X connect 10 0 19 1;
#X connect 12 0 49 1;
#X connect 13 0 50 0;
#X connect 14 0 13 1;
#X connect 14 0 15 1;
#X connect 15 0 50 1;
#X connect 16 3 18 0;
#X connect 17 0 6 0;
#X connect 17 0 16 0;
#X connect 18 0 20 0;
#X connect 19 0 9 1;
#X connect 19 0 12 1;
#X connect 20 0 23 0;
#X connect 21 0 24 0;
#X connect 22 0 19 0;
#X connect 23 0 22 0;
#X connect 24 0 20 0;
#X connect 25 0 21 0;
#X connect 26 0 33 0;
#X connect 26 0 34 3;
#X connect 28 0 29 0;
#X connect 29 0 30 0;
#X connect 30 0 26 0;
#X connect 31 0 28 0;
#X connect 32 0 31 0;
#X connect 33 0 27 0;
#X connect 34 0 13 0;
#X connect 34 0 9 0;
#X connect 34 0 12 0;
#X connect 34 1 15 0;
#X connect 34 1 9 0;
#X connect 34 1 12 0;
#X connect 35 0 34 4;
#X connect 36 0 0 0;
#X connect 39 0 42 0;
#X connect 39 0 44 0;
#X connect 40 0 34 0;
#X connect 41 0 34 1;
#X connect 42 0 40 0;
#X connect 43 0 41 0;
#X connect 44 0 43 0;
#X connect 45 0 41 1;
#X connect 45 0 40 1;
#X connect 52 0 53 0;
#X connect 52 0 56 0;
#X connect 52 0 57 0;
#X connect 52 0 55 0;
#X connect 53 0 10 0;
#X connect 55 0 3 0;
#X connect 56 0 14 0;
#X connect 57 0 35 0;
#X connect 58 0 0 0;
#X connect 59 0 60 0;
#X connect 60 0 58 0;
