#N canvas 8 35 1904 1012 10;
#X obj 44 71 tgl 15 1 empty empty ON_OFF 17 7 0 10 #fc0400 #000000
#000000 1 1;
#X obj 57 95 switch~;
#N canvas 968 8 944 1064 osc 0;
#X obj 296 143 list prepend send;
#X obj 296 168 list trim;
#X obj 301 290 netsend -u -b;
#X msg 12 54 disconnect;
#X msg 91 54 connect 127.0.0.1 12000;
#X obj 90 19 loadbang;
#X obj 296 31 r rm-freq;
#X obj 296 118 oscformat /freq1;
#X obj 460 143 list prepend send;
#X obj 460 168 list trim;
#X obj 460 118 oscformat /freq2;
#X obj 460 31 r trem-freq;
#X obj 595 144 list prepend send;
#X obj 595 169 list trim;
#X obj 595 31 r 3d-freq;
#X obj 595 119 oscformat /freq3;
#X obj 296 68 expr ($f1 - 200) / 600;
#X obj 460 68 expr $f1 / 20;
#X obj 594 70 expr ($f1 - 90) / 1910;
#X connect 0 0 1 0;
#X connect 1 0 2 0;
#X connect 3 0 2 0;
#X connect 4 0 2 0;
#X connect 5 0 4 0;
#X connect 6 0 16 0;
#X connect 7 0 0 0;
#X connect 8 0 9 0;
#X connect 9 0 2 0;
#X connect 10 0 8 0;
#X connect 11 0 17 0;
#X connect 12 0 13 0;
#X connect 13 0 2 0;
#X connect 14 0 18 0;
#X connect 15 0 12 0;
#X connect 16 0 7 0;
#X connect 17 0 10 0;
#X connect 18 0 15 0;
#X restore 26 145 pd osc;
#X obj 25 95 dsp~;
#X msg 44 49 1;
#X obj 290 37 vsl 26 91 0 0.8 0 1 output1-volume empty Output\ 1\ Volume
-25 -9 0 10 #fcfcfc #000000 #000000 9000 1;
#X obj 387 37 vsl 25 93 0 1 0 1 scope1-size empty Scope\ 1\ Size -20
-9 0 10 #fcfcfc #000000 #000000 3900 1;
#X obj 42 23 loadbang;
#N canvas 1448 561 464 510 audio 0;
#X obj 131 306 *~;
#X obj 157 279 / 100;
#X obj 158 242 nbx 5 14 -1e+37 1e+37 0 1 empty empty empty 0 -8 0 10
#fcfcfc #000000 #000000 448.819 256 0;
#X obj 116 408 fiddle~;
#X obj 112 241 adc~ 1;
#X obj 156 435 dbtorms;
#X obj 163 671 line;
#X msg 163 643 \$1 100;
#X obj 131 365 s~ mic1-input;
#X obj 164 706 s mic1-amplitude;
#X obj 81 709 s mic1-freq;
#X obj 82 643 mtof;
#X obj 82 671 min 2000;
#X text 156 222 input volume boost;
#X obj 433 241 nbx 5 14 -1e+37 1e+37 0 1 empty empty empty 0 -8 0 10
#fcfcfc #000000 #000000 472.441 256 0;
#X obj 391 409 fiddle~;
#X obj 436 435 dbtorms;
#X obj 439 651 line;
#X msg 439 625 \$1 100;
#X obj 361 627 mtof;
#X obj 361 655 min 2000;
#X text 431 221 input volume boost;
#X obj 387 242 adc~ 2;
#X obj 406 366 s~ mic2-input;
#X obj 361 709 s mic2-freq;
#X obj 439 707 s mic2-amplitude;
#X obj 721 239 nbx 5 14 -1e+37 1e+37 0 1 empty empty empty 0 -8 0 10
#fcfcfc #000000 #000000 468.504 256 0;
#X obj 677 407 fiddle~;
#X obj 725 649 line;
#X msg 725 623 \$1 100;
#X obj 646 627 mtof;
#X obj 647 652 min 2000;
#X text 719 219 input volume boost;
#X obj 673 240 adc~ 3;
#X obj 692 364 s~ mic3-input;
#X obj 647 707 s mic3-freq;
#X obj 725 705 s mic3-amplitude;
#X obj 379 58 vsl 15 128 0 1000 0 1 empty empty Mic\ 1 -5 -9 0 10 #fcfcfc
#000000 #000000 5700 1;
#X obj 435 58 vsl 15 128 0 1000 0 1 empty empty Mic\ 2 -5 -9 0 10 #fcfcfc
#000000 #000000 6000 1;
#X obj 491 58 vsl 15 128 0 1000 0 1 empty empty Mic\ 3 -5 -9 0 10 #fcfcfc
#000000 #000000 5950 1;
#X obj 9 306 loadbang;
#X msg 8 364 amp-range 60 70;
#X obj 560 58 vsl 15 128 0 0.05 0 1 noisefloor empty Noise\ Floor -20
-9 0 10 #fcfcfc #000000 #000000 4000 1;
#X obj 217 436 r noisefloor;
#X obj 190 463 moses;
#X obj 190 512 s mic1-noisegate;
#X obj 163 615 spigot;
#X obj 187 559 r mic1-noisegate;
#X obj 207 299 r mic1-noisegate;
#X obj 82 615 spigot;
#X obj 131 339 *~;
#X msg 190 488 0, f 1;
#X msg 216 487 1, f 1;
#X obj 406 309 *~;
#X obj 432 282 / 100;
#X obj 406 342 *~;
#X obj 544 298 r mic2-noisegate;
#X obj 692 304 *~;
#X obj 718 277 / 100;
#X obj 692 337 *~;
#X obj 768 297 r mic3-noisegate;
#X obj 494 434 r noisefloor;
#X obj 467 461 moses;
#X msg 467 486 0, f 1;
#X msg 493 485 1, f 1;
#X obj 467 510 s mic2-noisegate;
#X obj 439 599 spigot;
#X obj 358 599 spigot;
#X obj 721 435 dbtorms;
#X obj 779 434 r noisefloor;
#X obj 752 461 moses;
#X msg 752 486 0, f 1;
#X msg 778 485 1, f 1;
#X obj 467 559 r mic2-noisegate;
#X obj 725 598 spigot;
#X obj 644 598 spigot;
#X obj 757 564 r mic3-noisegate;
#X obj 752 510 s mic3-noisegate;
#X connect 0 0 50 0;
#X connect 1 0 0 1;
#X connect 2 0 1 0;
#X connect 3 0 49 0;
#X connect 3 3 5 0;
#X connect 4 0 0 0;
#X connect 4 0 3 0;
#X connect 5 0 44 0;
#X connect 5 0 46 0;
#X connect 6 0 9 0;
#X connect 7 0 6 0;
#X connect 11 0 12 0;
#X connect 12 0 10 0;
#X connect 14 0 54 0;
#X connect 15 0 67 0;
#X connect 15 3 16 0;
#X connect 16 0 62 0;
#X connect 16 0 66 0;
#X connect 17 0 25 0;
#X connect 18 0 17 0;
#X connect 19 0 20 0;
#X connect 20 0 24 0;
#X connect 22 0 15 0;
#X connect 22 0 53 0;
#X connect 26 0 58 0;
#X connect 27 0 75 0;
#X connect 27 3 68 0;
#X connect 28 0 36 0;
#X connect 29 0 28 0;
#X connect 30 0 31 0;
#X connect 31 0 35 0;
#X connect 33 0 27 0;
#X connect 33 0 57 0;
#X connect 37 0 2 0;
#X connect 38 0 14 0;
#X connect 39 0 26 0;
#X connect 40 0 41 0;
#X connect 41 0 3 0;
#X connect 41 0 15 0;
#X connect 41 0 27 0;
#X connect 43 0 44 1;
#X connect 44 0 51 0;
#X connect 44 1 52 0;
#X connect 46 0 7 0;
#X connect 47 0 46 1;
#X connect 47 0 49 1;
#X connect 48 0 50 1;
#X connect 49 0 11 0;
#X connect 50 0 8 0;
#X connect 51 0 45 0;
#X connect 52 0 45 0;
#X connect 53 0 55 0;
#X connect 54 0 53 1;
#X connect 55 0 23 0;
#X connect 56 0 55 1;
#X connect 57 0 59 0;
#X connect 58 0 57 1;
#X connect 59 0 34 0;
#X connect 60 0 59 1;
#X connect 61 0 62 1;
#X connect 62 0 63 0;
#X connect 62 1 64 0;
#X connect 63 0 65 0;
#X connect 64 0 65 0;
#X connect 66 0 18 0;
#X connect 67 0 19 0;
#X connect 68 0 70 0;
#X connect 68 0 74 0;
#X connect 69 0 70 1;
#X connect 70 0 71 0;
#X connect 70 1 72 0;
#X connect 71 0 77 0;
#X connect 72 0 77 0;
#X connect 73 0 66 1;
#X connect 73 0 67 1;
#X connect 75 0 30 0;
#X connect 76 0 74 1;
#X connect 76 0 75 1;
#X coords 0 -1 1 1 236 179 1 370 19;
#X restore 23 188 pd audio input;
#X obj 298 224 dac~ 1;
#X obj 346 223 dac~ 4 5;
#X obj 531 37 vsl 26 91 0 0.8 0 1 output2-volume empty Output\ 2\ Volume
-25 -9 0 10 #fcfcfc #000000 #000000 9000 1;
#X obj 763 37 vsl 26 91 0 0.8 0 1 output3-volume empty Output\ 3\ Volume
-25 -9 0 10 #fcfcfc #000000 #000000 9000 1;
#X obj 625 37 vsl 25 93 0 1 0 1 scope2-size empty Scope\ 2\ Size -20
-9 0 10 #fcfcfc #000000 #000000 4200 1;
#X obj 865 37 vsl 25 93 0 1 0 1 scope3-size empty Scope\ 3\ Size -20
-9 0 10 #fcfcfc #000000 #000000 4300 1;
#N canvas 968 35 944 1037 oscilla-tremolo 0;
#X obj 187 440 outlet~;
#X obj 243 440 outlet~;
#X obj 309 227 / 100;
#X obj 187 190 phasor~;
#X obj 188 319 *~;
#X obj 244 320 *~;
#X obj 187 263 cos~;
#X obj 243 263 cos~;
#X obj 243 227 +~ 0.25;
#X obj 309 263 sig~;
#X obj 187 115 nbx 5 14 -1e+37 1e+37 0 1 empty empty base_frequency
0 -8 0 10 #00fc04 #000000 #000000 1.18969 256 0;
#X obj 310 113 nbx 5 14 -1e+37 1e+37 0 1 empty empty scale 0 -8 0 10
#00fc04 #000000 #000000 85 256 0;
#X obj 299 440 outlet~;
#X obj 187 402 *~;
#X obj 52 370 *;
#X obj 243 402 *~;
#X obj 299 402 *~;
#X obj 53 306 r mic2-amplitude;
#X obj 69 335 r output2-volume;
#X obj 360 263 r~ mic2-input;
#X obj 333 363 r scope2-size;
#X obj 111 148 s trem-freq;
#X obj 185 47 r mic1-freq;
#X obj 188 75 / 100;
#X connect 2 0 9 0;
#X connect 3 0 6 0;
#X connect 3 0 8 0;
#X connect 4 0 13 0;
#X connect 4 0 15 0;
#X connect 5 0 16 0;
#X connect 6 0 4 0;
#X connect 7 0 5 0;
#X connect 8 0 7 0;
#X connect 9 0 5 1;
#X connect 9 0 4 1;
#X connect 10 0 3 0;
#X connect 10 0 21 0;
#X connect 11 0 2 0;
#X connect 13 0 0 0;
#X connect 14 0 13 1;
#X connect 15 0 1 0;
#X connect 16 0 12 0;
#X connect 17 0 14 0;
#X connect 18 0 14 1;
#X connect 19 0 5 1;
#X connect 19 0 4 1;
#X connect 20 0 15 1;
#X connect 20 0 16 1;
#X connect 22 0 23 0;
#X connect 23 0 10 0;
#X restore 550 166 pd oscilla-tremolo;
#N canvas 1448 8 464 229 oscilla-ringmod 0;
#X obj 187 440 outlet~;
#X obj 243 440 outlet~;
#X obj 309 227 / 100;
#X obj 187 190 phasor~;
#X obj 188 319 *~;
#X obj 244 320 *~;
#X obj 187 263 cos~;
#X obj 243 263 cos~;
#X obj 243 227 +~ 0.25;
#X obj 309 263 sig~;
#X obj 360 263 r~ mic1-input;
#X obj 188 150 nbx 5 14 -1e+37 1e+37 0 1 empty empty base_frequency
0 -8 0 10 #00fc04 #000000 #000000 608.24 256 0;
#X obj 311 148 nbx 5 14 -1e+37 1e+37 0 1 empty empty scale 0 -8 0 10
#00fc04 #000000 #000000 80 256 0;
#N canvas 1448 278 464 229 frequencyChanger 0;
#X obj 125 386 outlet;
#X obj 125 236 random 600;
#X obj 125 263 + 200;
#X obj 125 176 metro 60000;
#X obj 125 361 line;
#X msg 125 332 \$1 10000;
#X obj 125 130 inlet;
#X text 225 247 random frequencies in range 200-800, f 18;
#X connect 1 0 2 0;
#X connect 2 0 5 0;
#X connect 3 0 1 0;
#X connect 4 0 0 0;
#X connect 5 0 4 0;
#X connect 6 0 3 0;
#X restore 187 70 pd frequencyChanger;
#X obj 187 26 loadbang;
#X obj 187 49 tgl 15 0 empty empty empty 17 7 0 10 #fcfcfc #000000
#000000 1 1;
#X obj 113 199 s rm-freq;
#X obj 299 440 outlet~;
#X obj 187 402 *~;
#X obj 52 370 *;
#X obj 53 306 r mic1-amplitude;
#X obj 69 335 r output1-volume;
#X obj 243 402 *~;
#X obj 299 402 *~;
#X obj 333 363 r scope1-size;
#X connect 2 0 9 0;
#X connect 3 0 6 0;
#X connect 3 0 8 0;
#X connect 4 0 18 0;
#X connect 4 0 22 0;
#X connect 5 0 23 0;
#X connect 6 0 4 0;
#X connect 7 0 5 0;
#X connect 8 0 7 0;
#X connect 9 0 5 1;
#X connect 9 0 4 1;
#X connect 10 0 5 1;
#X connect 10 0 4 1;
#X connect 11 0 3 0;
#X connect 11 0 16 0;
#X connect 12 0 2 0;
#X connect 13 0 11 0;
#X connect 14 0 15 0;
#X connect 15 0 13 0;
#X connect 18 0 0 0;
#X connect 19 0 18 1;
#X connect 20 0 19 0;
#X connect 21 0 19 1;
#X connect 22 0 1 0;
#X connect 23 0 17 0;
#X connect 24 0 22 1;
#X connect 24 0 23 1;
#X restore 294 165 pd oscilla-ringmod;
#X obj 554 224 dac~ 2;
#X obj 602 223 dac~ 6 7;
#X obj 774 225 dac~ 3;
#X obj 822 224 dac~ 8 9 10 11;
#N canvas 968 35 944 1012 oscilla-3d 0;
#X obj 171 541 outlet~;
#X obj 241 541 outlet~;
#X obj 309 227 / 100;
#X obj 187 190 phasor~;
#X obj 188 319 *~;
#X obj 244 320 *~;
#X obj 187 263 cos~;
#X obj 243 263 cos~;
#X obj 243 227 +~ 0.25;
#X obj 309 263 sig~;
#X obj 187 115 nbx 5 14 -1e+37 1e+37 0 1 empty empty base_frequency
0 -8 0 10 #00fc04 #000000 #000000 -0.385735 256 0;
#X obj 310 113 nbx 5 14 -1e+37 1e+37 0 1 empty empty scale 0 -8 0 10
#00fc04 #000000 #000000 85 256 0;
#X obj 297 541 outlet~;
#X obj 171 503 *~;
#X obj 52 370 *;
#X obj 241 503 *~;
#X obj 297 503 *~;
#X obj 53 306 r mic3-amplitude;
#X obj 69 335 r output3-volume;
#X obj 360 263 r~ mic3-input;
#X obj 354 427 r scope3-size;
#X obj 356 539 outlet~;
#X obj 415 539 outlet~;
#X obj 308 377 phasor~;
#X obj 99 147 s 3d-freq;
#X obj 308 308 r mic2-freq;
#X obj 187 68 expr $f1 - $f2;
#X obj 187 36 r mic1-freq;
#X obj 268 36 r mic2-freq;
#X floatatom 309 355 7 0 0 0 - - -, f 7;
#X obj 309 332 / 8;
#X obj 414 502 expr~ ($v1 + 1) / 2;
#X obj 356 501 *~ 1;
#N canvas 968 561 944 510 rotate 0;
#X obj 347 71 inlet~ brightness;
#X obj 347 311 outlet~ brightness;
#X text 559 258 Derek Holzer;
#X text 559 307 macumbista@gmail.com;
#X obj 159 311 outlet~ X;
#X obj 216 341 outlet~ Y;
#X obj 273 371 outlet~ Z;
#X obj 477 71 inlet~ Xrotate;
#X obj 567 71 inlet~ Yrotate;
#X obj 657 71 inlet~ Zrotate;
#N canvas 51 210 698 542 rotator 0;
#X obj 91 54 inlet~ X1;
#X obj 194 54 inlet~ X2;
#X obj 368 54 inlet~ R;
#X text 307 264 X1' = X2cosR - X1sinR;
#N canvas 440 322 239 297 cos-sin 0;
#X obj 95 56 inlet~;
#X obj 95 231 outlet~;
#X obj 45 161 cos~;
#X obj 95 136 +~ 0.25;
#X obj 95 161 cos~;
#X text 134 163 SIN;
#X text 16 163 COS;
#X obj 95 110 wrap~;
#X obj 45 231 outlet~;
#X connect 0 0 7 0;
#X connect 2 0 8 0;
#X connect 3 0 4 0;
#X connect 4 0 1 0;
#X connect 7 0 2 0;
#X connect 7 0 3 0;
#X restore 368 87 pd cos-sin;
#X obj 76 345 outlet~ X1';
#X obj 171 345 outlet~ X2';
#X obj 194 157 *~;
#X obj 76 210 -~;
#X obj 91 157 *~;
#X obj 262 212 *~;
#X obj 171 212 *~;
#X text 307 284 X2' = X2sinR + X1cosR;
#X obj 171 264 +~;
#X text 346 361 Derek Holzer;
#X text 346 410 macumbista@gmail.com;
#X text 346 385 Helsinki April 2018;
#X connect 0 0 9 0;
#X connect 0 0 11 0;
#X connect 1 0 7 0;
#X connect 1 0 10 0;
#X connect 2 0 4 0;
#X connect 4 0 7 1;
#X connect 4 0 11 1;
#X connect 4 1 9 1;
#X connect 4 1 10 1;
#X connect 7 0 8 0;
#X connect 8 0 5 0;
#X connect 9 0 8 1;
#X connect 10 0 13 1;
#X connect 11 0 13 0;
#X connect 13 0 6 0;
#X restore 159 237 pd rotator;
#N canvas 51 210 698 542 rotator 0;
#X obj 91 54 inlet~ X1;
#X obj 194 54 inlet~ X2;
#X obj 368 54 inlet~ R;
#X text 307 264 X1' = X2cosR - X1sinR;
#N canvas 440 322 239 297 cos-sin 0;
#X obj 95 56 inlet~;
#X obj 95 231 outlet~;
#X obj 45 161 cos~;
#X obj 95 136 +~ 0.25;
#X obj 95 161 cos~;
#X text 134 163 SIN;
#X text 16 163 COS;
#X obj 95 110 wrap~;
#X obj 45 231 outlet~;
#X connect 0 0 7 0;
#X connect 2 0 8 0;
#X connect 3 0 4 0;
#X connect 4 0 1 0;
#X connect 7 0 2 0;
#X connect 7 0 3 0;
#X restore 368 87 pd cos-sin;
#X obj 76 345 outlet~ X1';
#X obj 171 345 outlet~ X2';
#X obj 194 157 *~;
#X obj 76 210 -~;
#X obj 91 157 *~;
#X obj 262 212 *~;
#X obj 171 212 *~;
#X text 307 284 X2' = X2sinR + X1cosR;
#X obj 171 264 +~;
#X text 346 361 Derek Holzer;
#X text 346 410 macumbista@gmail.com;
#X text 346 385 Helsinki April 2018;
#X connect 0 0 9 0;
#X connect 0 0 11 0;
#X connect 1 0 7 0;
#X connect 1 0 10 0;
#X connect 2 0 4 0;
#X connect 4 0 7 1;
#X connect 4 0 11 1;
#X connect 4 1 9 1;
#X connect 4 1 10 1;
#X connect 7 0 8 0;
#X connect 8 0 5 0;
#X connect 9 0 8 1;
#X connect 10 0 13 1;
#X connect 11 0 13 0;
#X connect 13 0 6 0;
#X restore 216 188 pd rotator;
#N canvas 51 210 698 542 rotator 0;
#X obj 91 54 inlet~ X1;
#X obj 194 54 inlet~ X2;
#X obj 368 54 inlet~ R;
#X text 307 264 X1' = X2cosR - X1sinR;
#N canvas 440 322 239 297 cos-sin 0;
#X obj 95 56 inlet~;
#X obj 95 231 outlet~;
#X obj 45 161 cos~;
#X obj 95 136 +~ 0.25;
#X obj 95 161 cos~;
#X text 134 163 SIN;
#X text 16 163 COS;
#X obj 95 110 wrap~;
#X obj 45 231 outlet~;
#X connect 0 0 7 0;
#X connect 2 0 8 0;
#X connect 3 0 4 0;
#X connect 4 0 1 0;
#X connect 7 0 2 0;
#X connect 7 0 3 0;
#X restore 368 87 pd cos-sin;
#X obj 76 345 outlet~ X1';
#X obj 171 345 outlet~ X2';
#X obj 194 157 *~;
#X obj 76 210 -~;
#X obj 91 157 *~;
#X obj 262 212 *~;
#X obj 171 212 *~;
#X text 307 284 X2' = X2sinR + X1cosR;
#X obj 171 264 +~;
#X text 346 361 Derek Holzer;
#X text 346 410 macumbista@gmail.com;
#X text 346 385 Helsinki April 2018;
#X connect 0 0 9 0;
#X connect 0 0 11 0;
#X connect 1 0 7 0;
#X connect 1 0 10 0;
#X connect 2 0 4 0;
#X connect 4 0 7 1;
#X connect 4 0 11 1;
#X connect 4 1 9 1;
#X connect 4 1 10 1;
#X connect 7 0 8 0;
#X connect 8 0 5 0;
#X connect 9 0 8 1;
#X connect 10 0 13 1;
#X connect 11 0 13 0;
#X connect 13 0 6 0;
#X restore 159 149 pd rotator;
#X text 559 282 Helsinki May 2018;
#X obj 216 71 inlet~ Z;
#X obj 100 71 inlet~ X;
#X obj 160 71 inlet~ Y;
#X obj 477 98 +~ 0.25;
#X obj 657 97 -~ 0.25;
#X connect 0 0 1 0;
#X connect 7 0 17 0;
#X connect 8 0 11 2;
#X connect 9 0 18 0;
#X connect 10 0 4 0;
#X connect 10 1 6 0;
#X connect 11 0 10 1;
#X connect 11 1 5 0;
#X connect 12 0 10 0;
#X connect 12 1 11 0;
#X connect 14 0 11 1;
#X connect 15 0 12 0;
#X connect 16 0 12 1;
#X connect 17 0 10 2;
#X connect 18 0 12 2;
#X restore 244 430 pd rotate;
#X connect 2 0 9 0;
#X connect 3 0 6 0;
#X connect 3 0 8 0;
#X connect 4 0 13 0;
#X connect 4 0 33 0;
#X connect 5 0 33 1;
#X connect 6 0 4 0;
#X connect 7 0 5 0;
#X connect 8 0 7 0;
#X connect 9 0 5 1;
#X connect 9 0 4 1;
#X connect 10 0 3 0;
#X connect 10 0 24 0;
#X connect 11 0 2 0;
#X connect 13 0 0 0;
#X connect 14 0 13 1;
#X connect 15 0 1 0;
#X connect 16 0 12 0;
#X connect 17 0 14 0;
#X connect 18 0 14 1;
#X connect 19 0 5 1;
#X connect 19 0 4 1;
#X connect 20 0 15 1;
#X connect 20 0 16 1;
#X connect 20 0 32 1;
#X connect 23 0 33 4;
#X connect 25 0 30 0;
#X connect 26 0 10 0;
#X connect 27 0 26 0;
#X connect 28 0 26 1;
#X connect 29 0 23 0;
#X connect 30 0 29 0;
#X connect 31 0 22 0;
#X connect 32 0 21 0;
#X connect 33 0 15 0;
#X connect 33 1 16 0;
#X connect 33 2 31 0;
#X restore 788 167 pd oscilla-3d;
#X connect 0 0 1 0;
#X connect 0 0 3 0;
#X connect 4 0 0 0;
#X connect 7 0 4 0;
#X connect 15 0 17 0;
#X connect 15 1 18 0;
#X connect 15 2 18 1;
#X connect 16 0 9 0;
#X connect 16 1 10 0;
#X connect 16 2 10 1;
#X connect 21 0 19 0;
#X connect 21 1 20 0;
#X connect 21 2 20 1;
#X connect 21 3 20 2;
#X connect 21 4 20 3;
